<svg width="48" height="48" viewBox="0 0 48 48" fill="none" xmlns="http://www.w3.org/2000/svg">
<path d="M24.407 12.078C17.6585 11.9869 12.1491 17.4962 12.2403 24.2448C12.3302 30.717 17.6002 35.9869 24.0724 36.0769C30.8221 36.1692 36.3303 30.6599 36.238 23.9113C36.1491 17.438 30.8792 12.168 24.407 12.078ZM31.7001 30.957C31.6771 30.9818 31.649 31.0013 31.6176 31.014C31.5863 31.0268 31.5525 31.0325 31.5187 31.0307C31.4849 31.029 31.4519 31.0198 31.422 31.0039C31.3922 30.9879 31.3662 30.9656 31.3459 30.9385C30.8299 30.2634 30.198 29.6854 29.4796 29.2315C28.0109 28.2888 26.1498 27.7696 24.2397 27.7696C22.3296 27.7696 20.4685 28.2888 18.9997 29.2315C18.2814 29.6852 17.6495 30.263 17.1335 30.9379C17.1132 30.965 17.0872 30.9873 17.0574 31.0033C17.0275 31.0192 16.9945 31.0284 16.9607 31.0302C16.9269 31.0319 16.8931 31.0262 16.8618 31.0135C16.8304 31.0007 16.8023 30.9812 16.7793 30.9564C15.0865 29.129 14.1276 26.7412 14.0863 24.2505C13.9923 18.6368 18.5988 13.9379 24.2149 13.9241C29.831 13.9102 34.3931 18.4706 34.3931 24.0775C34.395 26.6282 33.4331 29.0854 31.7001 30.957Z" fill="#B5B5B5"/>
<path d="M24.2397 17.6162C23.1021 17.6162 22.0735 18.0425 21.3425 18.8173C20.6116 19.5921 20.2464 20.6634 20.3289 21.8131C20.4962 24.0775 22.2506 25.9235 24.2397 25.9235C26.2288 25.9235 27.9797 24.0775 28.1505 21.8137C28.2359 20.6749 27.8736 19.6134 27.1305 18.8242C26.3967 18.0454 25.3698 17.6162 24.2397 17.6162Z" fill="#B5B5B5"/>
</svg>
