<svg width="24" height="24" viewBox="0 0 24 24" fill="none" xmlns="http://www.w3.org/2000/svg">
<g clip-path="url(#clip0_865_219)">
<mask id="path-1-inside-1_865_219" fill="white">
<path d="M14.1958 7.51607L14.1055 7.227C14.2326 7.227 14.3585 7.19401 14.4759 7.12992C14.5933 7.06582 14.7 6.97188 14.7899 6.85346C14.8798 6.73503 14.9511 6.59444 14.9997 6.4397C15.0484 6.28497 15.0734 6.11913 15.0734 5.95165C15.0734 5.78417 15.0484 5.61833 14.9997 5.4636C14.9511 5.30887 14.8798 5.16827 14.7899 5.04985C14.7 4.93142 14.5933 4.83748 14.4759 4.77339C14.3585 4.7093 14.2326 4.67631 14.1055 4.67631H13.3118L12.5891 2.30417C12.4452 1.99104 12.2426 1.73194 12.0008 1.55177C11.759 1.37161 11.4861 1.27643 11.2083 1.27539H4.27811C3.99116 1.27918 3.71005 1.38256 3.46309 1.57512C3.21613 1.76767 3.01206 2.0426 2.87143 2.37219L2.16809 4.67631H1.36796C1.24086 4.67631 1.11499 4.7093 0.997563 4.77339C0.880132 4.83748 0.773432 4.93142 0.683555 5.04985C0.593677 5.16827 0.522382 5.30887 0.473741 5.4636C0.4251 5.61833 0.400064 5.78417 0.400064 5.95165C0.400064 6.11913 0.4251 6.28497 0.473741 6.4397C0.522382 6.59444 0.593677 6.73503 0.683555 6.85346C0.773432 6.97188 0.880132 7.06582 0.997563 7.12992C1.11499 7.19401 1.24086 7.227 1.36796 7.227L1.29053 7.51607C0.904617 7.75727 0.578527 8.13773 0.3501 8.61328C0.121674 9.08884 0.000278033 9.64 3.36274e-08 10.2028V14.4539C-7.58672e-05 14.944 0.128338 15.4189 0.363508 15.7985C0.598678 16.1781 0.92616 16.439 1.29053 16.537V17.8549C1.29053 18.1931 1.3925 18.5175 1.57402 18.7567C1.75554 18.9958 2.00172 19.1302 2.25843 19.1302H2.90369C3.16039 19.1302 3.40658 18.9958 3.5881 18.7567C3.76961 18.5175 3.87159 18.1931 3.87159 17.8549V16.5795H11.6148V17.8549C11.6148 18.1931 11.7167 18.5175 11.8983 18.7567C12.0798 18.9958 12.326 19.1302 12.5827 19.1302H13.2279C13.4846 19.1302 13.7308 18.9958 13.9123 18.7567C14.0939 18.5175 14.1958 18.1931 14.1958 17.8549V16.537C14.5602 16.439 14.8877 16.1781 15.1228 15.7985C15.358 15.4189 15.4864 14.944 15.4864 14.4539V10.2028C15.4861 9.64 15.3647 9.08884 15.1363 8.61328C14.9078 8.13773 14.5817 7.75727 14.1958 7.51607ZM14.1184 5.52654C14.1789 5.52638 14.2381 5.54861 14.2895 5.5907C14.3408 5.6328 14.3822 5.69305 14.4088 5.7646C14.4329 5.82948 14.4441 5.90139 14.4412 5.97354C14.4384 6.04569 14.4217 6.1157 14.3926 6.17696C14.3636 6.23823 14.3231 6.28872 14.2752 6.32368C14.2272 6.35864 14.1732 6.37691 14.1184 6.37677H13.828L13.5699 5.52654H14.1184ZM2.16809 6.97193L2.6843 5.27147L3.44571 2.72078C3.5346 2.53649 3.65769 2.38512 3.80334 2.28098C3.94899 2.17684 4.1124 2.12337 4.27811 2.12562H11.2083C11.3673 2.12461 11.5242 2.17528 11.6649 2.27316C11.8055 2.37103 11.9257 2.5131 12.0148 2.68677L13.3957 7.227H2.09066L2.16809 6.97193ZM1.36796 6.37677C1.28239 6.37677 1.20033 6.33198 1.13983 6.25225C1.07932 6.17253 1.04533 6.0644 1.04533 5.95165C1.04533 5.8389 1.07932 5.73077 1.13983 5.65105C1.20033 5.57133 1.28239 5.52654 1.36796 5.52654H1.93579L1.67769 6.37677H1.36796ZM3.22632 17.8549C3.22632 17.9676 3.19233 18.0757 3.13183 18.1555C3.07132 18.2352 2.98926 18.28 2.90369 18.28H2.25843C2.17286 18.28 2.0908 18.2352 2.03029 18.1555C1.96979 18.0757 1.93579 17.9676 1.93579 17.8549V16.5795H3.22632V17.8549ZM4.91047 15.7293L5.28472 13.1786H10.2145L10.5888 15.7293H4.91047ZM13.5506 17.8549C13.5506 17.9676 13.5166 18.0757 13.4561 18.1555C13.3956 18.2352 13.3135 18.28 13.2279 18.28H12.5827C12.4971 18.28 12.415 18.2352 12.3545 18.1555C12.294 18.0757 12.26 17.9676 12.26 17.8549V16.5795H13.5506V17.8549ZM14.8411 14.4539C14.8411 14.7922 14.7391 15.1166 14.5576 15.3557C14.3761 15.5949 14.1299 15.7293 13.8732 15.7293H11.2341L10.7888 12.677C10.7753 12.5794 10.7362 12.4911 10.6785 12.4274C10.6208 12.3638 10.5479 12.3287 10.4726 12.3284H5.01371C4.93842 12.3287 4.86559 12.3638 4.80785 12.4274C4.75011 12.4911 4.71108 12.5794 4.69753 12.677L4.2523 15.7293H1.61316C1.35646 15.7293 1.11027 15.5949 0.928755 15.3557C0.747239 15.1166 0.645265 14.7922 0.645265 14.4539V10.2028C0.645265 9.63906 0.815222 9.09841 1.11775 8.69979C1.42028 8.30117 1.83059 8.07722 2.25843 8.07722H13.2279C13.6558 8.07722 14.0661 8.30117 14.3686 8.69979C14.6711 9.09841 14.8411 9.63906 14.8411 10.2028V14.4539ZM4.19422 8.92745H2.25843C2.00172 8.92745 1.75554 9.06182 1.57402 9.30099C1.3925 9.54017 1.29053 9.86456 1.29053 10.2028V11.053C1.29053 11.1658 1.32452 11.2739 1.38503 11.3536C1.44553 11.4334 1.52759 11.4781 1.61316 11.4781H4.19422C4.27979 11.4781 4.36185 11.4334 4.42236 11.3536C4.48286 11.2739 4.51685 11.1658 4.51685 11.053V9.35257C4.51685 9.23982 4.48286 9.13169 4.42236 9.05197C4.36185 8.97224 4.27979 8.92745 4.19422 8.92745ZM3.87159 10.6279H1.93579V10.2028C1.93579 10.0901 1.96979 9.98192 2.03029 9.9022C2.0908 9.82247 2.17286 9.77768 2.25843 9.77768H3.87159V10.6279ZM2.25843 12.3284C2.06699 12.3284 1.87986 12.4032 1.72069 12.5433C1.56152 12.6834 1.43746 12.8826 1.36421 13.1157C1.29095 13.3487 1.27178 13.6051 1.30913 13.8525C1.34647 14.0999 1.43866 14.3272 1.57402 14.5055C1.70938 14.6839 1.88185 14.8053 2.0696 14.8546C2.25735 14.9038 2.45196 14.8785 2.62882 14.782C2.80569 14.6855 2.95685 14.522 3.0632 14.3123C3.16956 14.1025 3.22632 13.856 3.22632 13.6037C3.22632 13.2655 3.12435 12.9411 2.94283 12.7019C2.76132 12.4627 2.51513 12.3284 2.25843 12.3284ZM2.25843 14.0288C2.19462 14.0288 2.13224 14.0039 2.07918 13.9572C2.02613 13.9105 1.98477 13.8441 1.96035 13.7664C1.93593 13.6887 1.92954 13.6032 1.94199 13.5208C1.95444 13.4383 1.98517 13.3626 2.03029 13.3031C2.07541 13.2437 2.1329 13.2032 2.19548 13.1868C2.25807 13.1704 2.32294 13.1788 2.38189 13.211C2.44085 13.2431 2.49123 13.2976 2.52669 13.3675C2.56214 13.4374 2.58106 13.5196 2.58106 13.6037C2.58106 13.7165 2.54707 13.8246 2.48656 13.9043C2.42606 13.984 2.34399 14.0288 2.25843 14.0288ZM9.35634 9.77768H6.77528C6.68971 9.77768 6.60765 9.82247 6.54714 9.9022C6.48664 9.98192 6.45265 10.0901 6.45265 10.2028C6.45265 10.3155 6.48664 10.4237 6.54714 10.5034C6.60765 10.5831 6.68971 10.6279 6.77528 10.6279H9.35634C9.44191 10.6279 9.52397 10.5831 9.58448 10.5034C9.64498 10.4237 9.67897 10.3155 9.67897 10.2028C9.67897 10.0901 9.64498 9.98192 9.58448 9.9022C9.52397 9.82247 9.44191 9.77768 9.35634 9.77768ZM13.2279 8.92745H11.2921C11.2066 8.92745 11.1245 8.97224 11.064 9.05197C11.0035 9.13169 10.9695 9.23982 10.9695 9.35257V11.053C10.9695 11.1658 11.0035 11.2739 11.064 11.3536C11.1245 11.4334 11.2066 11.4781 11.2921 11.4781H13.8732C13.9588 11.4781 14.0408 11.4334 14.1013 11.3536C14.1618 11.2739 14.1958 11.1658 14.1958 11.053V10.2028C14.1958 9.86456 14.0939 9.54017 13.9123 9.30099C13.7308 9.06182 13.4846 8.92745 13.2279 8.92745ZM13.5506 10.6279H11.6148V9.77768H13.2279C13.3135 9.77768 13.3956 9.82247 13.4561 9.9022C13.5166 9.98192 13.5506 10.0901 13.5506 10.2028V10.6279ZM13.2279 12.3284C13.0365 12.3284 12.8494 12.4032 12.6902 12.5433C12.531 12.6834 12.407 12.8826 12.3337 13.1157C12.2605 13.3487 12.2413 13.6051 12.2786 13.8525C12.316 14.0999 12.4082 14.3272 12.5435 14.5055C12.6789 14.6839 12.8513 14.8053 13.0391 14.8546C13.2269 14.9038 13.4215 14.8785 13.5983 14.782C13.7752 14.6855 13.9264 14.522 14.0327 14.3123C14.1391 14.1025 14.1958 13.856 14.1958 13.6037C14.1958 13.2655 14.0939 12.9411 13.9123 12.7019C13.7308 12.4627 13.4846 12.3284 13.2279 12.3284ZM13.2279 14.0288C13.1641 14.0288 13.1017 14.0039 13.0487 13.9572C12.9956 13.9105 12.9543 13.8441 12.9299 13.7664C12.9054 13.6887 12.899 13.6032 12.9115 13.5208C12.9239 13.4383 12.9547 13.3626 12.9998 13.3031C13.0449 13.2437 13.1024 13.2032 13.165 13.1868C13.2276 13.1704 13.2924 13.1788 13.3514 13.211C13.4103 13.2431 13.4607 13.2976 13.4962 13.3675C13.5316 13.4374 13.5506 13.5196 13.5506 13.6037C13.5506 13.7165 13.5166 13.8246 13.4561 13.9043C13.3956 13.984 13.3135 14.0288 13.2279 14.0288Z"/>
</mask>
<path d="M14.1958 7.51607L14.1055 7.227C14.2326 7.227 14.3585 7.19401 14.4759 7.12992C14.5933 7.06582 14.7 6.97188 14.7899 6.85346C14.8798 6.73503 14.9511 6.59444 14.9997 6.4397C15.0484 6.28497 15.0734 6.11913 15.0734 5.95165C15.0734 5.78417 15.0484 5.61833 14.9997 5.4636C14.9511 5.30887 14.8798 5.16827 14.7899 5.04985C14.7 4.93142 14.5933 4.83748 14.4759 4.77339C14.3585 4.7093 14.2326 4.67631 14.1055 4.67631H13.3118L12.5891 2.30417C12.4452 1.99104 12.2426 1.73194 12.0008 1.55177C11.759 1.37161 11.4861 1.27643 11.2083 1.27539H4.27811C3.99116 1.27918 3.71005 1.38256 3.46309 1.57512C3.21613 1.76767 3.01206 2.0426 2.87143 2.37219L2.16809 4.67631H1.36796C1.24086 4.67631 1.11499 4.7093 0.997563 4.77339C0.880132 4.83748 0.773432 4.93142 0.683555 5.04985C0.593677 5.16827 0.522382 5.30887 0.473741 5.4636C0.4251 5.61833 0.400064 5.78417 0.400064 5.95165C0.400064 6.11913 0.4251 6.28497 0.473741 6.4397C0.522382 6.59444 0.593677 6.73503 0.683555 6.85346C0.773432 6.97188 0.880132 7.06582 0.997563 7.12992C1.11499 7.19401 1.24086 7.227 1.36796 7.227L1.29053 7.51607C0.904617 7.75727 0.578527 8.13773 0.3501 8.61328C0.121674 9.08884 0.000278033 9.64 3.36274e-08 10.2028V14.4539C-7.58672e-05 14.944 0.128338 15.4189 0.363508 15.7985C0.598678 16.1781 0.92616 16.439 1.29053 16.537V17.8549C1.29053 18.1931 1.3925 18.5175 1.57402 18.7567C1.75554 18.9958 2.00172 19.1302 2.25843 19.1302H2.90369C3.16039 19.1302 3.40658 18.9958 3.5881 18.7567C3.76961 18.5175 3.87159 18.1931 3.87159 17.8549V16.5795H11.6148V17.8549C11.6148 18.1931 11.7167 18.5175 11.8983 18.7567C12.0798 18.9958 12.326 19.1302 12.5827 19.1302H13.2279C13.4846 19.1302 13.7308 18.9958 13.9123 18.7567C14.0939 18.5175 14.1958 18.1931 14.1958 17.8549V16.537C14.5602 16.439 14.8877 16.1781 15.1228 15.7985C15.358 15.4189 15.4864 14.944 15.4864 14.4539V10.2028C15.4861 9.64 15.3647 9.08884 15.1363 8.61328C14.9078 8.13773 14.5817 7.75727 14.1958 7.51607ZM14.1184 5.52654C14.1789 5.52638 14.2381 5.54861 14.2895 5.5907C14.3408 5.6328 14.3822 5.69305 14.4088 5.7646C14.4329 5.82948 14.4441 5.90139 14.4412 5.97354C14.4384 6.04569 14.4217 6.1157 14.3926 6.17696C14.3636 6.23823 14.3231 6.28872 14.2752 6.32368C14.2272 6.35864 14.1732 6.37691 14.1184 6.37677H13.828L13.5699 5.52654H14.1184ZM2.16809 6.97193L2.6843 5.27147L3.44571 2.72078C3.5346 2.53649 3.65769 2.38512 3.80334 2.28098C3.94899 2.17684 4.1124 2.12337 4.27811 2.12562H11.2083C11.3673 2.12461 11.5242 2.17528 11.6649 2.27316C11.8055 2.37103 11.9257 2.5131 12.0148 2.68677L13.3957 7.227H2.09066L2.16809 6.97193ZM1.36796 6.37677C1.28239 6.37677 1.20033 6.33198 1.13983 6.25225C1.07932 6.17253 1.04533 6.0644 1.04533 5.95165C1.04533 5.8389 1.07932 5.73077 1.13983 5.65105C1.20033 5.57133 1.28239 5.52654 1.36796 5.52654H1.93579L1.67769 6.37677H1.36796ZM3.22632 17.8549C3.22632 17.9676 3.19233 18.0757 3.13183 18.1555C3.07132 18.2352 2.98926 18.28 2.90369 18.28H2.25843C2.17286 18.28 2.0908 18.2352 2.03029 18.1555C1.96979 18.0757 1.93579 17.9676 1.93579 17.8549V16.5795H3.22632V17.8549ZM4.91047 15.7293L5.28472 13.1786H10.2145L10.5888 15.7293H4.91047ZM13.5506 17.8549C13.5506 17.9676 13.5166 18.0757 13.4561 18.1555C13.3956 18.2352 13.3135 18.28 13.2279 18.28H12.5827C12.4971 18.28 12.415 18.2352 12.3545 18.1555C12.294 18.0757 12.26 17.9676 12.26 17.8549V16.5795H13.5506V17.8549ZM14.8411 14.4539C14.8411 14.7922 14.7391 15.1166 14.5576 15.3557C14.3761 15.5949 14.1299 15.7293 13.8732 15.7293H11.2341L10.7888 12.677C10.7753 12.5794 10.7362 12.4911 10.6785 12.4274C10.6208 12.3638 10.5479 12.3287 10.4726 12.3284H5.01371C4.93842 12.3287 4.86559 12.3638 4.80785 12.4274C4.75011 12.4911 4.71108 12.5794 4.69753 12.677L4.2523 15.7293H1.61316C1.35646 15.7293 1.11027 15.5949 0.928755 15.3557C0.747239 15.1166 0.645265 14.7922 0.645265 14.4539V10.2028C0.645265 9.63906 0.815222 9.09841 1.11775 8.69979C1.42028 8.30117 1.83059 8.07722 2.25843 8.07722H13.2279C13.6558 8.07722 14.0661 8.30117 14.3686 8.69979C14.6711 9.09841 14.8411 9.63906 14.8411 10.2028V14.4539ZM4.19422 8.92745H2.25843C2.00172 8.92745 1.75554 9.06182 1.57402 9.30099C1.3925 9.54017 1.29053 9.86456 1.29053 10.2028V11.053C1.29053 11.1658 1.32452 11.2739 1.38503 11.3536C1.44553 11.4334 1.52759 11.4781 1.61316 11.4781H4.19422C4.27979 11.4781 4.36185 11.4334 4.42236 11.3536C4.48286 11.2739 4.51685 11.1658 4.51685 11.053V9.35257C4.51685 9.23982 4.48286 9.13169 4.42236 9.05197C4.36185 8.97224 4.27979 8.92745 4.19422 8.92745ZM3.87159 10.6279H1.93579V10.2028C1.93579 10.0901 1.96979 9.98192 2.03029 9.9022C2.0908 9.82247 2.17286 9.77768 2.25843 9.77768H3.87159V10.6279ZM2.25843 12.3284C2.06699 12.3284 1.87986 12.4032 1.72069 12.5433C1.56152 12.6834 1.43746 12.8826 1.36421 13.1157C1.29095 13.3487 1.27178 13.6051 1.30913 13.8525C1.34647 14.0999 1.43866 14.3272 1.57402 14.5055C1.70938 14.6839 1.88185 14.8053 2.0696 14.8546C2.25735 14.9038 2.45196 14.8785 2.62882 14.782C2.80569 14.6855 2.95685 14.522 3.0632 14.3123C3.16956 14.1025 3.22632 13.856 3.22632 13.6037C3.22632 13.2655 3.12435 12.9411 2.94283 12.7019C2.76132 12.4627 2.51513 12.3284 2.25843 12.3284ZM2.25843 14.0288C2.19462 14.0288 2.13224 14.0039 2.07918 13.9572C2.02613 13.9105 1.98477 13.8441 1.96035 13.7664C1.93593 13.6887 1.92954 13.6032 1.94199 13.5208C1.95444 13.4383 1.98517 13.3626 2.03029 13.3031C2.07541 13.2437 2.1329 13.2032 2.19548 13.1868C2.25807 13.1704 2.32294 13.1788 2.38189 13.211C2.44085 13.2431 2.49123 13.2976 2.52669 13.3675C2.56214 13.4374 2.58106 13.5196 2.58106 13.6037C2.58106 13.7165 2.54707 13.8246 2.48656 13.9043C2.42606 13.984 2.34399 14.0288 2.25843 14.0288ZM9.35634 9.77768H6.77528C6.68971 9.77768 6.60765 9.82247 6.54714 9.9022C6.48664 9.98192 6.45265 10.0901 6.45265 10.2028C6.45265 10.3155 6.48664 10.4237 6.54714 10.5034C6.60765 10.5831 6.68971 10.6279 6.77528 10.6279H9.35634C9.44191 10.6279 9.52397 10.5831 9.58448 10.5034C9.64498 10.4237 9.67897 10.3155 9.67897 10.2028C9.67897 10.0901 9.64498 9.98192 9.58448 9.9022C9.52397 9.82247 9.44191 9.77768 9.35634 9.77768ZM13.2279 8.92745H11.2921C11.2066 8.92745 11.1245 8.97224 11.064 9.05197C11.0035 9.13169 10.9695 9.23982 10.9695 9.35257V11.053C10.9695 11.1658 11.0035 11.2739 11.064 11.3536C11.1245 11.4334 11.2066 11.4781 11.2921 11.4781H13.8732C13.9588 11.4781 14.0408 11.4334 14.1013 11.3536C14.1618 11.2739 14.1958 11.1658 14.1958 11.053V10.2028C14.1958 9.86456 14.0939 9.54017 13.9123 9.30099C13.7308 9.06182 13.4846 8.92745 13.2279 8.92745ZM13.5506 10.6279H11.6148V9.77768H13.2279C13.3135 9.77768 13.3956 9.82247 13.4561 9.9022C13.5166 9.98192 13.5506 10.0901 13.5506 10.2028V10.6279ZM13.2279 12.3284C13.0365 12.3284 12.8494 12.4032 12.6902 12.5433C12.531 12.6834 12.407 12.8826 12.3337 13.1157C12.2605 13.3487 12.2413 13.6051 12.2786 13.8525C12.316 14.0999 12.4082 14.3272 12.5435 14.5055C12.6789 14.6839 12.8513 14.8053 13.0391 14.8546C13.2269 14.9038 13.4215 14.8785 13.5983 14.782C13.7752 14.6855 13.9264 14.522 14.0327 14.3123C14.1391 14.1025 14.1958 13.856 14.1958 13.6037C14.1958 13.2655 14.0939 12.9411 13.9123 12.7019C13.7308 12.4627 13.4846 12.3284 13.2279 12.3284ZM13.2279 14.0288C13.1641 14.0288 13.1017 14.0039 13.0487 13.9572C12.9956 13.9105 12.9543 13.8441 12.9299 13.7664C12.9054 13.6887 12.899 13.6032 12.9115 13.5208C12.9239 13.4383 12.9547 13.3626 12.9998 13.3031C13.0449 13.2437 13.1024 13.2032 13.165 13.1868C13.2276 13.1704 13.2924 13.1788 13.3514 13.211C13.4103 13.2431 13.4607 13.2976 13.4962 13.3675C13.5316 13.4374 13.5506 13.5196 13.5506 13.6037C13.5506 13.7165 13.5166 13.8246 13.4561 13.9043C13.3956 13.984 13.3135 14.0288 13.2279 14.0288Z" stroke="#444444" stroke-width="2" mask="url(#path-1-inside-1_865_219)"/>
</g>
<g clip-path="url(#clip1_865_219)">
<path d="M21.2263 17.2868H18.9149V20.3383C18.9149 20.674 18.7069 20.9487 18.4526 20.9487C18.1984 20.9487 17.9903 20.674 17.9903 20.3383V17.2868H15.6789C15.4247 17.2868 15.2167 17.0121 15.2167 16.6765C15.2167 16.3408 15.4247 16.0662 15.6789 16.0662H17.9903V13.0146C17.9903 12.6789 18.1984 12.4043 18.4526 12.4043C18.7069 12.4043 18.9149 12.6789 18.9149 13.0146V16.0662H21.2263C21.4806 16.0662 21.6886 16.3408 21.6886 16.6765C21.6886 17.0121 21.4806 17.2868 21.2263 17.2868Z" fill="#444444"/>
</g>
<defs>
<clipPath id="clip0_865_219">
<rect width="15.4864" height="20.4055" fill="white"/>
</clipPath>
<clipPath id="clip1_865_219">
<rect width="11.0947" height="14.6475" fill="white" transform="translate(12.9053 9.35254)"/>
</clipPath>
</defs>
</svg>
