<svg width="48" height="48" viewBox="0 0 48 48" fill="none" xmlns="http://www.w3.org/2000/svg">
<g clip-path="url(#clip0_212_4344)">
<path d="M21 33.25C21 33.6949 20.8681 34.1299 20.6209 34.4999C20.3736 34.87 20.0222 35.1583 19.6111 35.3286C19.2 35.4989 18.7476 35.5435 18.3112 35.4567C17.8747 35.3699 17.4738 35.1556 17.1592 34.841C16.8445 34.5263 16.6302 34.1254 16.5434 33.689C16.4565 33.2525 16.5011 32.8001 16.6714 32.389C16.8416 31.9779 17.13 31.6265 17.5 31.3792C17.87 31.132 18.305 31 18.75 31C19.0454 31 19.338 31.0581 19.611 31.1712C19.884 31.2843 20.1321 31.45 20.341 31.6589C20.55 31.8679 20.7157 32.1159 20.8288 32.3889C20.9419 32.6619 21 32.9545 21 33.25Z" fill="black"/>
<path d="M36.0002 33.25C36.0002 33.6949 35.8682 34.1299 35.621 34.4999C35.3738 34.87 35.0224 35.1583 34.6112 35.3286C34.2001 35.4989 33.7477 35.5435 33.3113 35.4567C32.8749 35.3699 32.474 35.1556 32.1593 34.841C31.8446 34.5263 31.6303 34.1254 31.5435 33.689C31.4567 33.2525 31.5012 32.8001 31.6715 32.389C31.8418 31.9779 32.1301 31.6265 32.5001 31.3792C32.8701 31.132 33.3051 31 33.7501 31C34.0456 31 34.3382 31.0581 34.6112 31.1712C34.8842 31.2843 35.1322 31.45 35.3412 31.6589C35.5501 31.8679 35.7158 32.1159 35.8289 32.3889C35.942 32.6619 36.0002 32.9545 36.0002 33.25Z" fill="black"/>
<path d="M36 23.5V14.5H18C18 14.303 17.9613 14.1079 17.8859 13.9259C17.8106 13.7439 17.7001 13.5785 17.5608 13.4392C17.4215 13.2999 17.2561 13.1894 17.0741 13.1141C16.8921 13.0387 16.697 13 16.5 13H12V14.5H15.0004L16.1265 24.1582C15.6409 24.5464 15.2879 25.0759 15.1164 25.6734C14.9448 26.2709 14.9632 26.907 15.1689 27.4937C15.3747 28.0803 15.7576 28.5886 16.2648 28.9481C16.772 29.3076 17.3783 29.5006 18 29.5005H36V28.0001H18C17.803 28.0001 17.6079 27.9613 17.4259 27.886C17.2439 27.8106 17.0785 27.7001 16.9393 27.5608C16.8 27.4215 16.6895 27.2562 16.6141 27.0742C16.5387 26.8922 16.5 26.6971 16.5 26.5001V26.4851L36 23.5Z" fill="black"/>
</g>
<defs>
<clipPath id="clip0_212_4344">
<rect width="24" height="22.5002" fill="white" transform="translate(12 13)"/>
</clipPath>
</defs>
</svg>
