<svg width="81" height="22" viewBox="0 0 81 22" fill="none" xmlns="http://www.w3.org/2000/svg">
<g clip-path="url(#clip0_943_5800)">
<path d="M8.46623 6.18774L3.81934 21.1883H9.23009L13.877 6.18774H8.46623Z" fill="#444444"/>
<path d="M39.1484 12.813L42.8405 21.1883H37.748L34.6288 14.563L32.5282 21.1883H27.1174L31.7007 6.43774H37.1114L35.7746 10.8129L41.1217 6.43774H47.0417L39.1484 12.813Z" fill="#444444"/>
<path d="M63.5286 7.68779C63.4147 7.3539 63.2178 7.05316 62.9557 6.81276C62.8311 6.68956 62.6821 6.59273 62.5178 6.52823C62.3536 6.46373 62.1777 6.43294 62.0009 6.43774H49.3334L48.1875 10.0629H58.1815L57.6086 12.0004H49.9699C49.5685 12.0161 49.1762 12.1231 48.8241 12.3129C48.4123 12.5648 48.0283 12.8581 47.6783 13.188C47.3068 13.5396 46.9856 13.9391 46.7235 14.3755C46.4611 14.7657 46.2474 15.1854 46.0869 15.6256L45.514 17.5631C45.3838 17.9674 45.3193 18.3892 45.323 18.8132C45.3192 19.2167 45.3837 19.618 45.514 20.0007C45.628 20.3346 45.8249 20.6353 46.0869 20.8758C46.2153 20.99 46.3665 21.0767 46.5309 21.1305C46.6953 21.1843 46.8692 21.204 47.0417 21.1883H60.0912L63.5286 10.0629C63.6589 9.65864 63.7233 9.23677 63.7196 8.81282C63.7183 8.43013 63.6538 8.0502 63.5286 7.68779M55.8899 17.5631H50.9884L51.5613 15.6256H56.4628L55.8899 17.5631Z" fill="#444444"/>
<path d="M29.0907 6.43774L27.9449 10.0629H22.5978L19.1604 21.1883H13.7496L17.187 10.0629C17.6326 8.1878 19.1604 6.62525 20.7518 6.43774H29.0907V6.43774Z" fill="#444444"/>
<path d="M78.2968 6.43774L77.151 10.0629H71.8039L68.3664 21.1883H62.9557L66.3931 10.0629C66.8387 8.1878 68.3664 6.62525 69.9578 6.43774H78.2968V6.43774Z" fill="#444444"/>
<path d="M80.6521 0L79.2517 4.50017H68.3029L69.7033 0H80.6521Z" fill="#FACF9C"/>
<path d="M69.7032 0L68.3028 4.50017H49.397L50.7974 0H69.7032Z" fill="#F6A647"/>
<path d="M50.7975 0L49.397 4.50017H24.2529L25.6534 0H50.7975Z" fill="#F28400"/>
<path d="M1.40044 0L0 4.50017H22.2796L23.6163 0H1.40044Z" fill="#444444"/>
</g>
<defs>
<clipPath id="clip0_943_5800">
<rect width="80.652" height="21.1882" fill="white"/>
</clipPath>
</defs>
</svg>
